# xmcd
#
# Track frame offsets: 
#        150
#        18452
#        41145
#        63112
#        79865
#        101190
#        123835
#        139875
#        162607
#        184192
#        206835
#        220962
#
# Disc length: 3186 seconds
#
# Revision: 3
# Processed by: cddbd v1.5.2PL0 Copyright (c) Steve Scherf et al.
# Submitted via: ExactAudioCopy v0.99pb4
#
DISCID=b40c700c
DTITLE=Various Artist - The Best New Age - Volume 1
DYEAR=1995
DGENRE=New Age
TTITLE0=Ottmar Liebert - Barcelona Nights
TTITLE1=Craig Chaquico - Gathering Of The Tribes
TTITLE2=Neal Schon - Cool Breeze
TTITLE3=Acoustic Alchemy - Blue Chip Bop
TTITLE4=Paul Winter Consort - Dancing Particles
TTITLE5=Michael Gettel - Intricate Balance
TTITLE6=Vangelis - Chariots Of Fire
TTITLE7=Oregon - Aurora
TTITLE8=Tangerine Dream - Zen Garden
TTITLE9=Steven Halpern - Inner Peace
TTITLE10=Raphael - In Paradiso
TTITLE11=Constance Demby - Eternal Return
EXTD=
EXTT0=
EXTT1=
EXTT2=
EXTT3=
EXTT4=
EXTT5=
EXTT6=
EXTT7=
EXTT8=
EXTT9=
EXTT10=
EXTT11=
PLAYORDER=
